HIERARCHY
ROOT Hips
{
	OFFSET	0.00	0.00	0.00
	CHANNELS 6 Xposition Yposition Zposition Zrotation Xrotation Yrotation
	JOINT LeftUpLeg
	{
		OFFSET	 0.126116	-0.065224	 0.014019
		CHANNELS 3 Zrotation Xrotation Yrotation
		JOINT LeftLeg
		{
			OFFSET	 0.000000	 0.569914	 0.000000
			CHANNELS 3 Zrotation Xrotation Yrotation
			JOINT LeftFoot
			{
				OFFSET	 0.000000	 0.544423	 0.000000
				CHANNELS 3 Zrotation Xrotation Yrotation
				JOINT LeftToeBase
				{
					OFFSET	 0.000000	 0.207117	 0.000000
					CHANNELS 3 Zrotation Xrotation Yrotation
					End Site
					{
						OFFSET	 0.000000	 0.207117	 0.000000
					}
				}
			}
		}
	}
	JOINT RightUpLeg
	{
		OFFSET	-0.124023	-0.065224	 0.008373
		CHANNELS 3 Zrotation Xrotation Yrotation
		JOINT RightLeg
		{
			OFFSET	 0.000000	 0.570047	 0.000000
			CHANNELS 3 Zrotation Xrotation Yrotation
			JOINT RightFoot
			{
				OFFSET	 0.000000	 0.544354	 0.000000
				CHANNELS 3 Zrotation Xrotation Yrotation
				JOINT RightToeBase
				{
					OFFSET	 0.000000	 0.207540	 0.000000
					CHANNELS 3 Zrotation Xrotation Yrotation
					End Site
					{
						OFFSET	 0.000000	 0.207540	 0.000000
					}
				}
			}
		}
	}
	JOINT Spine
	{
		OFFSET	 0.000184	 0.117403	 0.007763
		CHANNELS 3 Zrotation Xrotation Yrotation
		JOINT Spine1
		{
			OFFSET	 0.000000	 0.137269	 0.000000
			CHANNELS 3 Zrotation Xrotation Yrotation
			JOINT Spine2
			{
				OFFSET	 0.000000	 0.156879	 0.000000
				CHANNELS 3 Zrotation Xrotation Yrotation
				JOINT LeftShoulder
				{
					OFFSET	 0.080501	 0.160143	 0.002496
					CHANNELS 3 Zrotation Xrotation Yrotation
					JOINT LeftArm
					{
						OFFSET	 0.000000	 0.164363	 0.000000
						CHANNELS 3 Zrotation Xrotation Yrotation
						JOINT LeftForeArm
						{
							OFFSET	 0.000000	 0.364576	 0.000000
							CHANNELS 3 Zrotation Xrotation Yrotation
							JOINT LeftHand
							{
								OFFSET	 0.000000	 0.360812	 0.000000
								CHANNELS 3 Zrotation Xrotation Yrotation
								JOINT LeftHandIndex1
								{
									OFFSET	 0.000000	 0.086006	 0.000000
									CHANNELS 3 Zrotation Xrotation Yrotation
									JOINT LeftHandIndex2
									{
										OFFSET	 0.000000	 0.047237	 0.000000
										CHANNELS 3 Zrotation Xrotation Yrotation
										JOINT LeftHandIndex3
										{
											OFFSET	-0.004284	 0.038165	 0.000551
											CHANNELS 3 Zrotation Xrotation Yrotation
											End Site
											{
												OFFSET	-0.004284	 0.038165	 0.000551
											}
										}
									}
								}
							}
						}
					}
				}
				JOINT Neck
				{
					OFFSET	 0.000000	 0.176489	 0.000000
					CHANNELS 3 Zrotation Xrotation Yrotation
					JOINT Head
					{
						OFFSET	 0.000000	 0.077941	 0.001747
						CHANNELS 3 Zrotation Xrotation Yrotation
						End Site
						{
							OFFSET	 0.000000	 0.077941	 0.001747
						}
					}
				}
				JOINT RightShoulder
				{
					OFFSET	-0.080363	 0.159706	-0.000306
					CHANNELS 3 Zrotation Xrotation Yrotation
					JOINT RightArm
					{
						OFFSET	 0.000000	 0.164196	 0.000000
						CHANNELS 3 Zrotation Xrotation Yrotation
						JOINT RightForeArm
						{
							OFFSET	 0.000000	 0.365611	 0.000000
							CHANNELS 3 Zrotation Xrotation Yrotation
							JOINT RightHand
							{
								OFFSET	 0.000000	 0.360648	 0.000000
								CHANNELS 3 Zrotation Xrotation Yrotation
								JOINT RightHandIndex1
								{
									OFFSET	 0.000000	 0.069977	 0.000000
									CHANNELS 3 Zrotation Xrotation Yrotation
									JOINT RightHandIndex2
									{
										OFFSET	 0.000000	 0.052305	 0.000000
										CHANNELS 3 Zrotation Xrotation Yrotation
										JOINT RightHandIndex3
										{
											OFFSET	 0.009002	 0.042196	 0.000782
											CHANNELS 3 Zrotation Xrotation Yrotation
											End Site
											{
												OFFSET	 0.009002	 0.042196	 0.000782
											}
										}
									}
								}
							}
						}
					}
				}
			}
		}
	}
}
MOTION
Frames:    7
Frame Time: 0.03333334
 0.435736	 1.271763	 0.386111	 0.562699	-2.513005	-177.249600	-177.621700	 7.487148	-19.610240	 3.891946	-14.332320	 6.086890	 5.324843	 70.580570	-1.796957	 1.292262	 28.425850	-2.713146	 175.214500	 7.279465	 21.241440	-2.315226	-11.869390	 0.780910	 0.876600	 67.465290	-5.845334	-1.288183	 28.361890	 2.710176	 0.154459	 6.439245	 0.062961	-0.026517	-6.886701	-0.106143	 0.588470	 8.008057	-0.332203	-117.504700	-0.793771	 89.952260	 12.649020	-3.882313	-7.149803	 4.935852	-0.399011	 34.598300	 5.065900	-1.238316	-2.572938	-6.580301	 5.266122	 0.000000	 0.000000	 0.000000	 0.000000	 0.000000	 0.000000	 0.000000	 4.826658	 27.215740	 1.686814	-4.041089	-16.236380	 0.010840	 116.359500	-0.460022	-90.562310	-10.643120	-0.241809	 20.306430	-4.879359	 0.119022	-57.107150	-7.683951	-9.080737	 12.746160	 15.208500	 5.323790	 0.000000	 0.000000	 0.000000	 0.000000	 0.000000	 0.000000	 0.000000
 0.432774	 1.263759	 0.314689	 0.041300	-9.740173	-176.467000	-178.648600	 18.891760	-18.236720	 5.324372	-19.254230	 9.363801	 18.939040	 70.828430	-12.893330	 1.292262	 28.425850	-2.713146	 173.369900	 14.238820	 22.411170	-3.629972	-18.231750	-2.595108	-10.901970	 73.898650	 5.324090	-1.288183	 28.361890	 2.710176	-0.778583	 6.331527	 0.844583	-1.590214	-23.835470	-0.780292	 1.478553	 23.310710	-1.267688	-123.281000	 1.730711	 91.277730	 9.346042	-31.473760	 1.197900	 4.640728	-0.140092	 21.347260	 48.105010	 34.798500	-7.567825	-6.580301	 5.266122	 0.000000	 0.000000	 0.000000	 0.000000	 0.000000	 0.000000	 0.000000	 9.469221	 37.231970	-2.718193	-4.284776	-22.644530	 0.437119	 125.504000	 0.845736	-91.528250	-7.124887	-30.268370	 20.684810	-4.482058	 0.495058	-47.385970	-46.711370	 30.029470	 3.615949	 15.208500	 5.323790	 0.000000	 0.000000	 0.000000	 0.000000	 0.000000	 0.000000	 0.000000
 0.432471	 1.264360	 0.304925	 0.042523	-8.734030	-176.648000	-178.618400	 17.271770	-18.471620	 5.230536	-18.940140	 8.582758	 16.319090	 71.288700	-10.612750	 1.292262	 28.425850	-2.713146	 173.616800	 12.363330	 22.039570	-3.443375	-17.353240	-1.933842	-7.915595	 73.937660	 2.869648	-1.288183	 28.361890	 2.710176	-0.747812	 7.383195	 0.719405	-1.037375	-21.675660	-0.692335	 1.277112	 22.046980	-0.999460	-122.959000	-0.101401	 90.325060	 12.052900	-29.041080	 1.869623	 4.663048	-0.166119	 22.399280	 41.268300	 30.900050	-4.880605	-6.580301	 5.266122	 0.000000	 0.000000	 0.000000	 0.000000	 0.000000	 0.000000	 0.000000	 9.254198	 37.708870	-2.351363	-4.365046	-22.249340	 0.524233	 124.997300	-0.721053	-90.665430	-9.821167	-28.100070	 19.824600	-4.516580	 0.453830	-49.202670	-41.036930	 25.296290	 3.084323	 15.208500	 5.323790	 0.000000	 0.000000	 0.000000	 0.000000	 0.000000	 0.000000	 0.000000
 0.432052	 1.264259	 0.290379	 0.144785	-7.129388	-176.881000	-178.384500	 14.946220	-18.820790	 5.251536	-19.010540	 7.531856	 12.373350	 72.268490	-7.326815	 1.292262	 28.425850	-2.713146	 174.047900	 9.455187	 21.537530	-3.203520	-16.211410	-0.903327	-3.314672	 74.104640	-0.928794	-1.288183	 28.361890	 2.710176	-0.659474	 8.082993	 0.522325	-0.378700	-17.637680	-0.543323	 1.019981	 19.375510	-0.665492	-122.251600	-2.210174	 89.248350	 15.242060	-23.470920	 2.077743	 4.728545	-0.212722	 24.330410	 30.298920	 23.743200	-1.288976	-6.580301	 5.266122	 0.000000	 0.000000	 0.000000	 0.000000	 0.000000	 0.000000	 0.000000	 8.648074	 37.512780	-1.601395	-4.435160	-21.386430	 0.579242	 123.850100	-2.470949	-89.717980	-13.041270	-22.497020	 18.893110	-4.602598	 0.381839	-51.747010	-31.462460	 17.293310	 2.894725	 15.208500	 5.323790	 0.000000	 0.000000	 0.000000	 0.000000	 0.000000	 0.000000	 0.000000
 0.431147	 1.261161	 0.276309	 0.360625	-5.484260	-177.038500	-177.864500	 13.257940	-19.250600	 5.742861	-20.639570	 7.249128	 10.001460	 74.111370	-6.132856	 1.292262	 28.425850	-2.713146	 174.380700	 6.998269	 21.392440	-3.237256	-16.372860	-0.306174	 0.246856	 74.955810	-3.524832	-1.288183	 28.361890	 2.710176	-0.286340	 7.282015	 0.302974	-0.278161	-13.381280	-0.312034	 0.872426	 14.632920	-0.542972	-120.186600	-1.601948	 89.568680	 14.343400	-13.590540	-1.651917	 4.795353	-0.280084	 28.245720	 17.988550	 11.534180	 1.581496	-6.580301	 5.266122	 0.000000	 0.000000	 0.000000	 0.000000	 0.000000	 0.000000	 0.000000	 6.846375	 33.061430	-0.024948	-4.265507	-19.157440	 0.313307	 120.590800	-1.610854	-90.117230	-12.268580	-11.427300	 19.064760	-4.700532	 0.270423	-53.240300	-20.055370	 4.734750	 4.176351	 15.208500	 5.323790	 0.000000	 0.000000	 0.000000	 0.000000	 0.000000	 0.000000	 0.000000
 0.430360	 1.258255	 0.261160	 0.633374	-3.386483	-177.234300	-177.250400	 10.774430	-19.606290	 6.115131	-21.850300	 6.848750	 6.592644	 75.823540	-4.051809	 1.292262	 28.425850	-2.713146	 174.860600	 3.610745	 21.188090	-3.114160	-15.782480	 0.487913	 4.959655	 75.439800	-7.218743	-1.288183	 28.361890	 2.710176	 0.168677	 6.019797	 0.090806	-0.281099	-7.701981	-0.125367	 0.727839	 8.795421	-0.359559	-117.807900	-0.886131	 89.910750	 12.723270	-1.580022	-6.278835	 4.822882	-0.375941	 33.783630	 5.106513	-3.114310	-1.307024	-6.580301	 5.266122	 0.000000	 0.000000	 0.000000	 0.000000	 0.000000	 0.000000	 0.000000	 5.039431	 27.879010	 1.509779	-4.066641	-16.567710	 0.042530	 116.837600	-0.591803	-90.516240	-10.780030	 1.998980	 19.860260	-4.745220	 0.134252	-56.519530	-7.302000	-10.408490	 11.007010	 15.208500	 5.323790	 0.000000	 0.000000	 0.000000	 0.000000	 0.000000	 0.000000	 0.000000
 0.429715	 1.250473	 0.274356	 0.852606	-5.364403	-177.032900	-176.923200	 15.541010	-19.388480	 7.445670	-26.002720	 7.848404	 10.717170	 77.206280	-7.743035	 1.292262	 28.425850	-2.713146	 174.387000	 8.863143	 21.439240	-4.291175	-21.270720	-0.541552	 1.942564	 77.839730	-4.436117	-1.288183	 28.361890	 2.710176	 0.221746	 7.251612	 0.267920	-0.400104	-9.177678	-0.178706	 0.923280	 12.235210	-0.517418	-119.844800	-1.500095	 89.619600	 16.092720	 3.991484	-1.119563	 5.052872	-0.312829	 28.964370	 7.325441	-4.757826	 2.963798	-6.580301	 5.266122	 0.000000	 0.000000	 0.000000	 0.000000	 0.000000	 0.000000	 0.000000	 6.570582	 32.319930	 0.212606	-4.237143	-18.786680	 0.272024	 120.051600	-1.466221	-90.178600	-14.520600	 6.151268	 17.826700	-4.896176	 0.255915	-53.590030	-7.619117	-9.750862	 3.857123	 15.208500	 5.323790	 0.000000	 0.000000	 0.000000	 0.000000	 0.000000	 0.000000	 0.000000
